<svg xmlns="http://www.w3.org/2000/svg" xmlns:xlink="http://www.w3.org/1999/xlink" width="84" height="84" viewBox="0 0 84 84">
  <defs>
    <clipPath id="clip-path">
      <rect id="Rectangle_12" data-name="Rectangle 12" width="80" height="80"/>
    </clipPath>
    <clipPath id="clip-Logo">
      <rect width="84" height="84"/>
    </clipPath>
  </defs>
  <g id="Logo" clip-path="url(#clip-Logo)">
    <g id="Logo-2" data-name="Logo" transform="translate(11 2)" clip-path="url(#clip-path)">
      <g id="Group_19" data-name="Group 19" transform="translate(-207 -130)">
        <path id="Path_13" data-name="Path 13" d="M20.81,45.107a10.167,10.167,0,0,0,4.042.468,26.142,26.142,0,0,0,6.207-1.514c.457-.176,1.572-.6,2.988-1.265,1.276-.6,3.292-1.738,3.657-1.967,0,0,3.663-2.258,4.775-3.191.717-.575,1.5-1.1,2.927-2.287S49.026,32,49.026,32s2.225-2.373,2.966-3.277,2.332-3.054,2.651-3.618.831-1.2,1.517-2.527c.606-1.173,1.259-2.775,1.259-2.775s.352-.926.724-2.168c.159-.53.31-1.41.414-1.971a11.659,11.659,0,0,0-.069-3.059,13.632,13.632,0,0,0-.98-3.511A14.51,14.51,0,0,0,55.279,5.5,12.538,12.538,0,0,0,52.2,2.76,15.484,15.484,0,0,0,47.9.86,24.867,24.867,0,0,0,43.482.146a40.273,40.273,0,0,0-5.546-.1,42.945,42.945,0,0,0-5.454.565,47.678,47.678,0,0,0-6.8,1.667A47.468,47.468,0,0,0,18.23,5.3a49.913,49.913,0,0,0-6.086,3.642c-.353.264-1.462,1.047-2.783,2.122A27.21,27.21,0,0,0,6.58,13.653a30.147,30.147,0,0,0-3.919,4.941A18.227,18.227,0,0,0,.015,26.115a11.379,11.379,0,0,0,.248,3.022,7,7,0,0,0,1.165,2.629A5.59,5.59,0,0,0,3.113,33.5a18.214,18.214,0,0,1,.236-3.886,15.94,15.94,0,0,1,1.54-4.073,27.57,27.57,0,0,1,3.976-5.217A48.209,48.209,0,0,1,13.9,15.836c.7-.522,2.924-2,2.924-2s1.591-1,3.5-1.993S23.96,10.121,24.5,9.871c0,0,1.9-.718,3.785-1.343S31.1,7.8,32.168,7.515a44.119,44.119,0,0,1,6.917-.907,33.121,33.121,0,0,1,8.931.69c2.944.8,4.187,1.915,5.1,3.119a5.332,5.332,0,0,1,.635,4.382,19.92,19.92,0,0,1-2.009,4.783,40.124,40.124,0,0,1-4.619,5.687,44.621,44.621,0,0,1-7.856,6.119,58.017,58.017,0,0,1-7.653,4.16,53.636,53.636,0,0,1-8.736,3.1,22.446,22.446,0,0,1-4.75.622l-1.322,1.86L13.437,46s2.418-.287,3.489-.42C17.618,45.489,20.81,45.107,20.81,45.107Z" transform="translate(208 134.4) rotate(-4.012)" fill="#fff" stroke="#fff" stroke-width="1"/>
        <path id="Path_10" data-name="Path 10" d="M-484.867,438.885a32.049,32.049,0,0,1-3.751-.237,10.874,10.874,0,0,1-3.459-.888c-.925-.508-.995-.725-1.13-.894a1.493,1.493,0,0,1-.143-1.308,4.77,4.77,0,0,1,.844-1.5,8.247,8.247,0,0,1,1.353-1.222,16.876,16.876,0,0,1,1.945-1.155,13.664,13.664,0,0,1,2.134-.861,21.542,21.542,0,0,1,3.053-.731c.4-.042.832-.054,1.233-.084s.691-.952,0-1.02a20.305,20.305,0,0,0-3.8.362,21.589,21.589,0,0,0-2.624.743,14.148,14.148,0,0,0-1.868.818,14.225,14.225,0,0,0-1.81,1.1,7.38,7.38,0,0,0-1.862,1.825,3.81,3.81,0,0,0-.838,2.368,5.045,5.045,0,0,0,1.348,3.129,9.191,9.191,0,0,0,1.958,1.543,16.968,16.968,0,0,0,3.5,1.486,28.741,28.741,0,0,0,4.529.86,30.53,30.53,0,0,0,5.425.089c1.082-.159,10.826-1.053,11.9-1.209s8.424-1.265,8.424-1.265,7.13-.887,7.83-.951c.482-.044,3.043-.255,5.484-.392.637-.036,1.516-.072,2.062-.064a18.282,18.282,0,0,1,3.176.1,5.445,5.445,0,0,1,2.029.862s.355.322.6.3a.382.382,0,0,0,.287-.14.382.382,0,0,0,.08-.309,4.782,4.782,0,0,0-.543-1.61,9.142,9.142,0,0,0-1.984-2.223,7.95,7.95,0,0,0-1.824-1.04,10.279,10.279,0,0,0-2.665-.669,11.245,11.245,0,0,0-2.2-.086c-.527,0-3.38.159-4.2.242s-3.285.351-3.285.351-2.43.281-5.112.639-3.1.416-5.747.8-4.2.666-4.848.738-2.385.341-3.908.541-3.781.507-6.681.746A36.34,36.34,0,0,1-484.867,438.885Z" transform="translate(703.589 -283.867)" fill="#fc354c" stroke="#fc354c" stroke-width="1"/>
        <path id="Path_14" data-name="Path 14" d="M-415.889,443.456c-.008.024.236.825.34,1.324.147.583.347,1.179.7,2.662,1.01,3.509,2.522,8.285,2.827,9.1.484,1.3,1.084,3.334,2.627,6.733a34.782,34.782,0,0,0,3.1,5.772,13.166,13.166,0,0,0,1.754,2.171,7.862,7.862,0,0,0,1.33,1.083,3.936,3.936,0,0,0,1.239.478,2.575,2.575,0,0,0,1.49-.072,7.838,7.838,0,0,0,2.768-1.488,5.113,5.113,0,0,0,1.175-1.5,3.051,3.051,0,0,0,.261-1.934c-.067-.21-.256,1.115-1.187,1.621s-2.47-.2-3.481-1.253a27.9,27.9,0,0,1-2.606-3.8s-.445-.811-1.439-3.057-1.517-3.982-1.671-4.368c0,0-.562-1.68-.711-2.088,0,0-1.773-5.782-2.01-6.841-.192-.639-.7-2.732-.9-3.493-.2-.847-.438-1.78-.438-1.78S-415.8,443.217-415.889,443.456Z" transform="translate(642.749 -264.704)" fill="#fff" stroke="#fff" stroke-linejoin="round" stroke-width="1"/>
        <path id="Path_15" data-name="Path 15" d="M6.58,2.063A30.147,30.147,0,0,0,2.661,7,18.227,18.227,0,0,0,.015,14.525a11.379,11.379,0,0,0,.248,3.022,7,7,0,0,0,1.165,2.629,5.59,5.59,0,0,0,1.686,1.731,18.214,18.214,0,0,1,.236-3.886,15.94,15.94,0,0,1,1.54-4.073A27.57,27.57,0,0,1,8.865,8.732,48.21,48.21,0,0,1,13.9,4.246c.7-.522,2.924-2,2.924-2s1.591-1,3.5-1.993S7.164,1.4,6.58,2.063Z" transform="translate(208.808 145.961) rotate(-4.012)" fill="#fff" stroke="#fff" stroke-width="1"/>
        <g id="Group_17" data-name="Group 17" transform="translate(213.295 150.334)">
          <path id="Path_6" data-name="Path 6" d="M-403.272,404.133a9.33,9.33,0,0,1,1.972,1.556c1,.942,2.954,3.164,2.512,4.081-.529,1.075-3.783,5.138-7.7,9.927-3.955,5.235-8.143,10.873-8.143,10.873l-5.469,9.017s-.913,1.568-1.9,3.68-2.038,4.768-2.038,4.768-4.106,11.31-2.474,11.665.731,1.651.49,1.871a1.382,1.382,0,0,1-1.471.262,3.1,3.1,0,0,1-1.741-1.915,17.621,17.621,0,0,1-.617-3.5,29.328,29.328,0,0,1,1.072-8.6,53.85,53.85,0,0,1,2.328-6.952s.656-1.645,1.735-4.1,2.255-4.694,2.255-4.694,1.794-3.627,2.81-5.323a162.7,162.7,0,0,1,9.657-15.031c4.522-6.009,5.25-6.43,5.25-6.43S-403.576,404.039-403.272,404.133Z" transform="translate(429.86 -404.128)" fill="#fc354c" stroke="#fc354c" stroke-width="1"/>
        </g>
        <path id="Path_8" data-name="Path 8" d="M-489.971,462.237a16.656,16.656,0,0,1-2.439.092,16.124,16.124,0,0,1-2.619-.152,3.252,3.252,0,0,1-1.235-.443c-.278-.19-.27-.566-.3-.729s-.257-.54-.577-.3a1.017,1.017,0,0,0-.348.911,3.071,3.071,0,0,0,.631,1.813,5.707,5.707,0,0,0,1.833,1.66,6.47,6.47,0,0,0,2.105.962,30.832,30.832,0,0,0,7.45.408c2.025-.206,6.264-.688,6.264-.688l3.667-.234a11.514,11.514,0,0,1,3.164.154,11.244,11.244,0,0,1,1.794,1,.5.5,0,0,0,.325-.57,5.844,5.844,0,0,0-.608-1.731,7.042,7.042,0,0,0-1.668-2,7.859,7.859,0,0,0-1.98-1.065,7.753,7.753,0,0,0-2.191-.414c-.578-.018-1.727-.059-2.5,0a18.809,18.809,0,0,0-2.465.315C-482.97,461.452-489.479,462.1-489.971,462.237Z" transform="translate(714.648 -286.635)" fill="#fc354c" stroke="#fc354c" stroke-width="1"/>
      </g>
    </g>
  </g>
</svg>
